<svg width="44" height="45" viewBox="0 0 44 45" fill="none" xmlns="http://www.w3.org/2000/svg">
<path d="M25.3365 41.1537H18.6632C18.2451 41.1538 17.8395 41.0109 17.5137 40.7488C17.1879 40.4867 16.9615 40.1212 16.872 39.7127L16.1259 36.2587C15.1305 35.8226 14.1866 35.2772 13.3117 34.6326L9.94387 35.7051C9.54523 35.8322 9.11511 35.8191 8.72492 35.6681C8.33474 35.517 8.00796 35.237 7.79887 34.8746L4.45487 29.0977C4.24797 28.735 4.1703 28.3127 4.23458 27.9001C4.29886 27.4875 4.50127 27.1089 4.8087 26.8262L7.4212 24.4429C7.3024 23.3633 7.3024 22.2739 7.4212 21.1942L4.8087 18.8164C4.50083 18.5336 4.29815 18.1547 4.23386 17.7417C4.16957 17.3286 4.2475 16.906 4.45487 16.5431L7.79154 10.7626C8.00063 10.4001 8.3274 10.1201 8.71759 9.96907C9.10778 9.818 9.5379 9.80494 9.93654 9.93206L13.3044 11.0046C13.7517 10.6746 14.2174 10.3666 14.6977 10.0879C15.1615 9.82756 15.6382 9.59106 16.1259 9.38023L16.8739 5.92989C16.9629 5.52142 17.1889 5.15565 17.5143 4.89323C17.8398 4.63081 18.2451 4.4875 18.6632 4.48706H25.3365C25.7546 4.4875 26.16 4.63081 26.4854 4.89323C26.8108 5.15565 27.0368 5.52142 27.1259 5.92989L27.8812 9.38206C28.8753 9.82072 29.8189 10.366 30.6954 11.0082L34.065 9.93573C34.4634 9.80907 34.8931 9.82237 35.2829 9.97342C35.6727 10.1245 35.9992 10.4042 36.2082 10.7662L39.5449 16.5467C39.9702 17.2929 39.8235 18.2371 39.191 18.8182L36.5785 21.2016C36.6973 22.2812 36.6973 23.3706 36.5785 24.4502L39.191 26.8336C39.8235 27.4166 39.9702 28.3589 39.5449 29.1051L36.2082 34.8856C35.9991 35.248 35.6723 35.528 35.2821 35.6791C34.892 35.8301 34.4618 35.8432 34.0632 35.7161L30.6954 34.6436C29.8211 35.2877 28.8779 35.8325 27.883 36.2679L27.1259 39.7127C27.0365 40.1209 26.8103 40.4862 26.4849 40.7483C26.1595 41.0103 25.7543 41.1534 25.3365 41.1537V41.1537ZM21.9925 15.4871C20.0476 15.4871 18.1824 16.2597 16.8071 17.6349C15.4318 19.0102 14.6592 20.8755 14.6592 22.8204C14.6592 24.7653 15.4318 26.6306 16.8071 28.0058C18.1824 29.3811 20.0476 30.1537 21.9925 30.1537C23.9375 30.1537 25.8027 29.3811 27.178 28.0058C28.5533 26.6306 29.3259 24.7653 29.3259 22.8204C29.3259 20.8755 28.5533 19.0102 27.178 17.6349C25.8027 16.2597 23.9375 15.4871 21.9925 15.4871V15.4871Z" fill="white"/>
</svg>
