<svg width="42" height="42" viewBox="0 0 42 42" fill="none" xmlns="http://www.w3.org/2000/svg">
<path d="M15.75 8.75002C15.2859 8.75002 14.8408 8.93439 14.5126 9.26258C14.1844 9.59077 14 10.0359 14 10.5C14 10.9641 14.1844 11.4093 14.5126 11.7375C14.8408 12.0656 15.2859 12.25 15.75 12.25C16.2141 12.25 16.6592 12.0656 16.9874 11.7375C17.3156 11.4093 17.5 10.9641 17.5 10.5C17.5 10.0359 17.3156 9.59077 16.9874 9.26258C16.6592 8.93439 16.2141 8.75002 15.75 8.75002ZM10.7975 8.75002C11.1591 7.72533 11.8295 6.83802 12.7165 6.2104C13.6036 5.58277 14.6634 5.24573 15.75 5.24573C16.8366 5.24573 17.8964 5.58277 18.7835 6.2104C19.6705 6.83802 20.3409 7.72533 20.7025 8.75002H33.25C33.7141 8.75002 34.1592 8.93439 34.4874 9.26258C34.8156 9.59077 35 10.0359 35 10.5C35 10.9641 34.8156 11.4093 34.4874 11.7375C34.1592 12.0656 33.7141 12.25 33.25 12.25H20.7025C20.3409 13.2747 19.6705 14.162 18.7835 14.7896C17.8964 15.4173 16.8366 15.7543 15.75 15.7543C14.6634 15.7543 13.6036 15.4173 12.7165 14.7896C11.8295 14.162 11.1591 13.2747 10.7975 12.25H8.75C8.28587 12.25 7.84075 12.0656 7.51256 11.7375C7.18437 11.4093 7 10.9641 7 10.5C7 10.0359 7.18437 9.59077 7.51256 9.26258C7.84075 8.93439 8.28587 8.75002 8.75 8.75002H10.7975ZM26.25 19.25C25.7859 19.25 25.3408 19.4344 25.0126 19.7626C24.6844 20.0908 24.5 20.5359 24.5 21C24.5 21.4641 24.6844 21.9093 25.0126 22.2375C25.3408 22.5656 25.7859 22.75 26.25 22.75C26.7141 22.75 27.1592 22.5656 27.4874 22.2375C27.8156 21.9093 28 21.4641 28 21C28 20.5359 27.8156 20.0908 27.4874 19.7626C27.1592 19.4344 26.7141 19.25 26.25 19.25ZM21.2975 19.25C21.6591 18.2253 22.3295 17.338 23.2165 16.7104C24.1036 16.0828 25.1634 15.7457 26.25 15.7457C27.3366 15.7457 28.3964 16.0828 29.2835 16.7104C30.1705 17.338 30.8409 18.2253 31.2025 19.25H33.25C33.7141 19.25 34.1592 19.4344 34.4874 19.7626C34.8156 20.0908 35 20.5359 35 21C35 21.4641 34.8156 21.9093 34.4874 22.2375C34.1592 22.5656 33.7141 22.75 33.25 22.75H31.2025C30.8409 23.7747 30.1705 24.662 29.2835 25.2896C28.3964 25.9173 27.3366 26.2543 26.25 26.2543C25.1634 26.2543 24.1036 25.9173 23.2165 25.2896C22.3295 24.662 21.6591 23.7747 21.2975 22.75H8.75C8.28587 22.75 7.84075 22.5656 7.51256 22.2375C7.18437 21.9093 7 21.4641 7 21C7 20.5359 7.18437 20.0908 7.51256 19.7626C7.84075 19.4344 8.28587 19.25 8.75 19.25H21.2975ZM15.75 29.75C15.2859 29.75 14.8408 29.9344 14.5126 30.2626C14.1844 30.5908 14 31.0359 14 31.5C14 31.9641 14.1844 32.4093 14.5126 32.7375C14.8408 33.0656 15.2859 33.25 15.75 33.25C16.2141 33.25 16.6592 33.0656 16.9874 32.7375C17.3156 32.4093 17.5 31.9641 17.5 31.5C17.5 31.0359 17.3156 30.5908 16.9874 30.2626C16.6592 29.9344 16.2141 29.75 15.75 29.75ZM10.7975 29.75C11.1591 28.7253 11.8295 27.838 12.7165 27.2104C13.6036 26.5828 14.6634 26.2457 15.75 26.2457C16.8366 26.2457 17.8964 26.5828 18.7835 27.2104C19.6705 27.838 20.3409 28.7253 20.7025 29.75H33.25C33.7141 29.75 34.1592 29.9344 34.4874 30.2626C34.8156 30.5908 35 31.0359 35 31.5C35 31.9641 34.8156 32.4093 34.4874 32.7375C34.1592 33.0656 33.7141 33.25 33.25 33.25H20.7025C20.3409 34.2747 19.6705 35.162 18.7835 35.7896C17.8964 36.4173 16.8366 36.7543 15.75 36.7543C14.6634 36.7543 13.6036 36.4173 12.7165 35.7896C11.8295 35.162 11.1591 34.2747 10.7975 33.25H8.75C8.28587 33.25 7.84075 33.0656 7.51256 32.7375C7.18437 32.4093 7 31.9641 7 31.5C7 31.0359 7.18437 30.5908 7.51256 30.2626C7.84075 29.9344 8.28587 29.75 8.75 29.75H10.7975Z" fill="black"/>
</svg>
