<svg width="20" height="20" viewBox="0 0 20 20" fill="none" xmlns="http://www.w3.org/2000/svg">
<g clip-path="url(#clip0_347_208)">
<path fill-rule="evenodd" clip-rule="evenodd" d="M2.35635 0.638964C2.57507 0.420575 2.8377 0.251162 3.12685 0.141952C3.41599 0.0327412 3.72504 -0.0137725 4.03352 0.00549274C4.342 0.024758 4.64287 0.109362 4.91618 0.253699C5.18949 0.398036 5.429 0.598809 5.61885 0.842714L7.8626 3.72521C8.27385 4.25396 8.41885 4.94271 8.25635 5.59271L7.5726 8.33021C7.53725 8.472 7.53916 8.62052 7.57814 8.76135C7.61713 8.90218 7.69187 9.03054 7.7951 9.13396L10.8663 12.2052C10.9699 12.3087 11.0985 12.3835 11.2395 12.4225C11.3806 12.4615 11.5294 12.4633 11.6713 12.4277L14.4076 11.744C14.7284 11.6638 15.0632 11.6575 15.3867 11.7257C15.7102 11.794 16.014 11.9348 16.2751 12.1377L19.1576 14.3802C20.1938 15.1865 20.2888 16.7177 19.3613 17.644L18.0688 18.9365C17.1438 19.8615 15.7613 20.2677 14.4726 19.814C11.1741 18.6534 8.17919 16.765 5.7101 14.289C3.23421 11.8202 1.34586 8.82579 0.1851 5.52771C-0.2674 4.24021 0.13885 2.85646 1.06385 1.93146L2.35635 0.638964Z" fill="black"/>
</g>
<defs>
<clipPath id="clip0_347_208">
<rect width="20" height="20" fill="white"/>
</clipPath>
</defs>
</svg>
