<svg width="34" height="34" viewBox="0 0 34 34" fill="none" xmlns="http://www.w3.org/2000/svg">
<path d="M26.9166 15.5833H10.115L15.2575 9.40665C15.4979 9.11734 15.6136 8.74436 15.5791 8.36976C15.5445 7.99515 15.3626 7.64961 15.0733 7.40915C14.784 7.16869 14.411 7.053 14.0364 7.08754C13.6618 7.12208 13.3163 7.30401 13.0758 7.59332L5.99246 16.0933C5.9448 16.1609 5.90219 16.232 5.86496 16.3058C5.86496 16.3766 5.86496 16.4192 5.76579 16.49C5.70158 16.6524 5.66796 16.8253 5.66663 17C5.66796 17.1746 5.70158 17.3475 5.76579 17.51C5.76579 17.5808 5.76579 17.6233 5.86496 17.6941C5.90219 17.768 5.9448 17.839 5.99246 17.9067L13.0758 26.4066C13.209 26.5666 13.3758 26.6952 13.5643 26.7833C13.7529 26.8715 13.9585 26.917 14.1666 26.9166C14.4976 26.9173 14.8184 26.802 15.0733 26.5908C15.2167 26.4719 15.3353 26.3258 15.4222 26.161C15.5092 25.9962 15.5627 25.8158 15.5798 25.6303C15.5969 25.4447 15.5772 25.2576 15.5219 25.0797C15.4666 24.9017 15.3767 24.7365 15.2575 24.5933L10.115 18.4166H26.9166C27.2923 18.4166 27.6527 18.2674 27.9184 18.0017C28.184 17.736 28.3333 17.3757 28.3333 17C28.3333 16.6243 28.184 16.2639 27.9184 15.9982C27.6527 15.7326 27.2923 15.5833 26.9166 15.5833Z" fill="black"/>
</svg>
