<svg width="21" height="17" viewBox="0 0 21 17" fill="none" xmlns="http://www.w3.org/2000/svg">
<path d="M19.6608 5.93333L13.57 5.16458L10.8473 0.37084C10.7729 0.239591 10.6506 0.133341 10.4994 0.0687576C10.1204 -0.0937421 9.65981 0.0416743 9.4703 0.37084L6.74756 5.16458L0.656779 5.93333C0.488856 5.95417 0.335327 6.02291 0.217782 6.12708C0.0756756 6.25393 -0.00263136 6.42458 6.7519e-05 6.60154C0.0027664 6.7785 0.0862503 6.9473 0.232175 7.07083L4.63893 10.8021L3.59782 16.0708C3.5734 16.1934 3.58902 16.3194 3.6429 16.4347C3.69677 16.5499 3.78676 16.6498 3.90264 16.7228C4.01852 16.7959 4.15567 16.8394 4.29853 16.8482C4.44139 16.8571 4.58425 16.831 4.7109 16.7729L10.1588 14.2854L15.6067 16.7729C15.7554 16.8416 15.9281 16.8646 16.0936 16.8396C16.511 16.7771 16.7917 16.4333 16.7197 16.0708L15.6786 10.8021L20.0854 7.07083C20.2053 6.96875 20.2845 6.83541 20.3085 6.68958C20.3732 6.325 20.0806 5.9875 19.6608 5.93333Z" fill="black"/>
</svg>
